G04 (created by PCBNEW-RS274X (2012-01-19 BZR 3256)-stable) date 2/28/2013 8:09:21 AM*
G01*
G70*
G90*
%MOIN*%
G04 Gerber Fmt 3.4, Leading zero omitted, Abs format*
%FSLAX34Y34*%
G04 APERTURE LIST*
%ADD10C,0.006000*%
G04 APERTURE END LIST*
G54D10*
X48094Y-34441D02*
X48094Y-34648D01*
X48107Y-34673D01*
X48119Y-34685D01*
X48143Y-34697D01*
X48180Y-34697D01*
X48204Y-34685D01*
X48094Y-34599D02*
X48119Y-34612D01*
X48167Y-34612D01*
X48192Y-34599D01*
X48204Y-34587D01*
X48216Y-34563D01*
X48216Y-34490D01*
X48204Y-34465D01*
X48192Y-34453D01*
X48167Y-34441D01*
X48119Y-34441D01*
X48094Y-34453D01*
X47972Y-34612D02*
X47972Y-34441D01*
X47972Y-34356D02*
X47984Y-34368D01*
X47972Y-34380D01*
X47960Y-34368D01*
X47972Y-34356D01*
X47972Y-34380D01*
X47887Y-34441D02*
X47789Y-34441D01*
X47850Y-34356D02*
X47850Y-34575D01*
X47838Y-34599D01*
X47813Y-34612D01*
X47789Y-34612D01*
X47704Y-34612D02*
X47704Y-34356D01*
X47594Y-34612D02*
X47594Y-34478D01*
X47607Y-34453D01*
X47631Y-34441D01*
X47667Y-34441D01*
X47692Y-34453D01*
X47704Y-34465D01*
X47362Y-34441D02*
X47362Y-34612D01*
X47472Y-34441D02*
X47472Y-34575D01*
X47460Y-34599D01*
X47435Y-34612D01*
X47399Y-34612D01*
X47375Y-34599D01*
X47362Y-34587D01*
X47240Y-34612D02*
X47240Y-34356D01*
X47240Y-34453D02*
X47216Y-34441D01*
X47167Y-34441D01*
X47143Y-34453D01*
X47130Y-34465D01*
X47118Y-34490D01*
X47118Y-34563D01*
X47130Y-34587D01*
X47143Y-34599D01*
X47167Y-34612D01*
X47216Y-34612D01*
X47240Y-34599D01*
X47008Y-34587D02*
X46996Y-34599D01*
X47008Y-34612D01*
X47020Y-34599D01*
X47008Y-34587D01*
X47008Y-34612D01*
X46776Y-34599D02*
X46801Y-34612D01*
X46849Y-34612D01*
X46874Y-34599D01*
X46886Y-34587D01*
X46898Y-34563D01*
X46898Y-34490D01*
X46886Y-34465D01*
X46874Y-34453D01*
X46849Y-34441D01*
X46801Y-34441D01*
X46776Y-34453D01*
X46630Y-34612D02*
X46655Y-34599D01*
X46667Y-34587D01*
X46679Y-34563D01*
X46679Y-34490D01*
X46667Y-34465D01*
X46655Y-34453D01*
X46630Y-34441D01*
X46594Y-34441D01*
X46570Y-34453D01*
X46557Y-34465D01*
X46545Y-34490D01*
X46545Y-34563D01*
X46557Y-34587D01*
X46570Y-34599D01*
X46594Y-34612D01*
X46630Y-34612D01*
X46435Y-34612D02*
X46435Y-34441D01*
X46435Y-34465D02*
X46423Y-34453D01*
X46398Y-34441D01*
X46362Y-34441D01*
X46338Y-34453D01*
X46325Y-34478D01*
X46325Y-34612D01*
X46325Y-34478D02*
X46313Y-34453D01*
X46289Y-34441D01*
X46252Y-34441D01*
X46228Y-34453D01*
X46216Y-34478D01*
X46216Y-34612D01*
X45911Y-34343D02*
X46131Y-34673D01*
X45826Y-34441D02*
X45826Y-34612D01*
X45826Y-34465D02*
X45814Y-34453D01*
X45789Y-34441D01*
X45753Y-34441D01*
X45729Y-34453D01*
X45716Y-34478D01*
X45716Y-34612D01*
X45557Y-34612D02*
X45582Y-34599D01*
X45594Y-34587D01*
X45606Y-34563D01*
X45606Y-34490D01*
X45594Y-34465D01*
X45582Y-34453D01*
X45557Y-34441D01*
X45521Y-34441D01*
X45497Y-34453D01*
X45484Y-34465D01*
X45472Y-34490D01*
X45472Y-34563D01*
X45484Y-34587D01*
X45497Y-34599D01*
X45521Y-34612D01*
X45557Y-34612D01*
X45252Y-34612D02*
X45252Y-34478D01*
X45265Y-34453D01*
X45289Y-34441D01*
X45338Y-34441D01*
X45362Y-34453D01*
X45252Y-34599D02*
X45277Y-34612D01*
X45338Y-34612D01*
X45362Y-34599D01*
X45374Y-34575D01*
X45374Y-34551D01*
X45362Y-34526D01*
X45338Y-34514D01*
X45277Y-34514D01*
X45252Y-34502D01*
X45130Y-34612D02*
X45130Y-34356D01*
X45020Y-34612D02*
X45020Y-34478D01*
X45033Y-34453D01*
X45057Y-34441D01*
X45093Y-34441D01*
X45118Y-34453D01*
X45130Y-34465D01*
X44898Y-34441D02*
X44898Y-34697D01*
X44898Y-34453D02*
X44874Y-34441D01*
X44825Y-34441D01*
X44801Y-34453D01*
X44788Y-34465D01*
X44776Y-34490D01*
X44776Y-34563D01*
X44788Y-34587D01*
X44801Y-34599D01*
X44825Y-34612D01*
X44874Y-34612D01*
X44898Y-34599D01*
X44483Y-34343D02*
X44703Y-34673D01*
X44410Y-34599D02*
X44386Y-34612D01*
X44337Y-34612D01*
X44313Y-34599D01*
X44301Y-34575D01*
X44301Y-34563D01*
X44313Y-34538D01*
X44337Y-34526D01*
X44374Y-34526D01*
X44398Y-34514D01*
X44410Y-34490D01*
X44410Y-34478D01*
X44398Y-34453D01*
X44374Y-34441D01*
X44337Y-34441D01*
X44313Y-34453D01*
X44215Y-34441D02*
X44167Y-34612D01*
X44118Y-34490D01*
X44069Y-34612D01*
X44020Y-34441D01*
X43813Y-34612D02*
X43813Y-34356D01*
X43813Y-34599D02*
X43838Y-34612D01*
X43886Y-34612D01*
X43911Y-34599D01*
X43923Y-34587D01*
X43935Y-34563D01*
X43935Y-34490D01*
X43923Y-34465D01*
X43911Y-34453D01*
X43886Y-34441D01*
X43838Y-34441D01*
X43813Y-34453D01*
X43691Y-34612D02*
X43691Y-34441D01*
X43691Y-34356D02*
X43703Y-34368D01*
X43691Y-34380D01*
X43679Y-34368D01*
X43691Y-34356D01*
X43691Y-34380D01*
X43581Y-34599D02*
X43557Y-34612D01*
X43508Y-34612D01*
X43484Y-34599D01*
X43472Y-34575D01*
X43472Y-34563D01*
X43484Y-34538D01*
X43508Y-34526D01*
X43545Y-34526D01*
X43569Y-34514D01*
X43581Y-34490D01*
X43581Y-34478D01*
X43569Y-34453D01*
X43545Y-34441D01*
X43508Y-34441D01*
X43484Y-34453D01*
X43325Y-34612D02*
X43350Y-34599D01*
X43362Y-34587D01*
X43374Y-34563D01*
X43374Y-34490D01*
X43362Y-34465D01*
X43350Y-34453D01*
X43325Y-34441D01*
X43289Y-34441D01*
X43265Y-34453D01*
X43252Y-34465D01*
X43240Y-34490D01*
X43240Y-34563D01*
X43252Y-34587D01*
X43265Y-34599D01*
X43289Y-34612D01*
X43325Y-34612D01*
X46093Y-34859D02*
X46032Y-35030D01*
X45972Y-34859D01*
X45825Y-34774D02*
X45801Y-34774D01*
X45777Y-34786D01*
X45764Y-34798D01*
X45752Y-34822D01*
X45740Y-34871D01*
X45740Y-34932D01*
X45752Y-34981D01*
X45764Y-35005D01*
X45777Y-35017D01*
X45801Y-35030D01*
X45825Y-35030D01*
X45850Y-35017D01*
X45862Y-35005D01*
X45874Y-34981D01*
X45886Y-34932D01*
X45886Y-34871D01*
X45874Y-34822D01*
X45862Y-34798D01*
X45850Y-34786D01*
X45825Y-34774D01*
X45630Y-35005D02*
X45618Y-35017D01*
X45630Y-35030D01*
X45642Y-35017D01*
X45630Y-35005D01*
X45630Y-35030D01*
X45459Y-34774D02*
X45435Y-34774D01*
X45411Y-34786D01*
X45398Y-34798D01*
X45386Y-34822D01*
X45374Y-34871D01*
X45374Y-34932D01*
X45386Y-34981D01*
X45398Y-35005D01*
X45411Y-35017D01*
X45435Y-35030D01*
X45459Y-35030D01*
X45484Y-35017D01*
X45496Y-35005D01*
X45508Y-34981D01*
X45520Y-34932D01*
X45520Y-34871D01*
X45508Y-34822D01*
X45496Y-34798D01*
X45484Y-34786D01*
X45459Y-34774D01*
X46972Y-35216D02*
X46960Y-35204D01*
X46936Y-35192D01*
X46875Y-35192D01*
X46850Y-35204D01*
X46838Y-35216D01*
X46826Y-35240D01*
X46826Y-35265D01*
X46838Y-35301D01*
X46984Y-35448D01*
X46826Y-35448D01*
X46667Y-35192D02*
X46643Y-35192D01*
X46619Y-35204D01*
X46606Y-35216D01*
X46594Y-35240D01*
X46582Y-35289D01*
X46582Y-35350D01*
X46594Y-35399D01*
X46606Y-35423D01*
X46619Y-35435D01*
X46643Y-35448D01*
X46667Y-35448D01*
X46692Y-35435D01*
X46704Y-35423D01*
X46716Y-35399D01*
X46728Y-35350D01*
X46728Y-35289D01*
X46716Y-35240D01*
X46704Y-35216D01*
X46692Y-35204D01*
X46667Y-35192D01*
X46338Y-35448D02*
X46484Y-35448D01*
X46411Y-35448D02*
X46411Y-35192D01*
X46435Y-35228D01*
X46460Y-35253D01*
X46484Y-35265D01*
X46252Y-35192D02*
X46094Y-35192D01*
X46179Y-35289D01*
X46143Y-35289D01*
X46118Y-35301D01*
X46106Y-35314D01*
X46094Y-35338D01*
X46094Y-35399D01*
X46106Y-35423D01*
X46118Y-35435D01*
X46143Y-35448D01*
X46216Y-35448D01*
X46240Y-35435D01*
X46252Y-35423D01*
X45984Y-35350D02*
X45789Y-35350D01*
X45618Y-35192D02*
X45594Y-35192D01*
X45570Y-35204D01*
X45557Y-35216D01*
X45545Y-35240D01*
X45533Y-35289D01*
X45533Y-35350D01*
X45545Y-35399D01*
X45557Y-35423D01*
X45570Y-35435D01*
X45594Y-35448D01*
X45618Y-35448D01*
X45643Y-35435D01*
X45655Y-35423D01*
X45667Y-35399D01*
X45679Y-35350D01*
X45679Y-35289D01*
X45667Y-35240D01*
X45655Y-35216D01*
X45643Y-35204D01*
X45618Y-35192D01*
X45435Y-35216D02*
X45423Y-35204D01*
X45399Y-35192D01*
X45338Y-35192D01*
X45313Y-35204D01*
X45301Y-35216D01*
X45289Y-35240D01*
X45289Y-35265D01*
X45301Y-35301D01*
X45447Y-35448D01*
X45289Y-35448D01*
X45179Y-35350D02*
X44984Y-35350D01*
X44874Y-35216D02*
X44862Y-35204D01*
X44838Y-35192D01*
X44777Y-35192D01*
X44752Y-35204D01*
X44740Y-35216D01*
X44728Y-35240D01*
X44728Y-35265D01*
X44740Y-35301D01*
X44886Y-35448D01*
X44728Y-35448D01*
X44642Y-35192D02*
X44472Y-35192D01*
X44581Y-35448D01*
M02*
