M48
;DRILL file {Pcbnew (2012-01-19 BZR 3256)-stable} date 2/27/2013 6:09:49 PM
;FORMAT={-:-/ absolute / inch / decimal}
FMAT,2
INCH,TZ
T1C0.013
T2C0.028
%
G90
G05
M72
T1
X4.280Y-3.028
X4.402Y-2.984
X4.406Y-3.154
X4.472Y-2.850
X4.472Y-3.028
X4.472Y-3.091
X4.472Y-3.268
X4.472Y-3.559
X4.476Y-3.654
X4.740Y-3.205
X4.799Y-3.102
X4.839Y-2.878
X4.839Y-3.142
X4.862Y-3.417
X4.862Y-3.469
X4.878Y-2.795
X4.921Y-3.047
X4.992Y-3.469
X5.016Y-3.417
T2
X4.921Y-3.103
X4.921Y-3.153
X4.921Y-3.203
X4.921Y-3.253
X4.921Y-3.303
X4.971Y-3.103
X4.971Y-3.153
X4.971Y-3.203
X4.971Y-3.253
X4.971Y-3.303
T0
M30
