G04 (created by PCBNEW-RS274X (2012-01-19 BZR 3256)-stable) date 2/27/2013 5:01:56 PM*
G01*
G70*
G90*
%MOIN*%
G04 Gerber Fmt 3.4, Leading zero omitted, Abs format*
%FSLAX34Y34*%
G04 APERTURE LIST*
%ADD10C,0.006000*%
%ADD11R,0.061000X0.023600*%
%ADD12R,0.045000X0.025000*%
%ADD13R,0.025000X0.045000*%
%ADD14R,0.118100X0.039400*%
%ADD15O,0.118100X0.039400*%
%ADD16C,0.039400*%
%ADD17C,0.020000*%
%ADD18C,0.011800*%
G04 APERTURE END LIST*
G54D10*
G54D11*
X45276Y-32677D03*
X45276Y-33177D03*
X45276Y-33677D03*
X45276Y-34177D03*
X45276Y-34677D03*
X45276Y-35177D03*
X45276Y-35677D03*
X45276Y-36177D03*
X47402Y-36177D03*
X47402Y-35677D03*
X47402Y-35177D03*
X47402Y-34677D03*
X47402Y-34177D03*
X47402Y-33677D03*
X47402Y-33177D03*
X47402Y-32677D03*
X45276Y-27559D03*
X45276Y-28059D03*
X45276Y-28559D03*
X45276Y-29059D03*
X45276Y-29559D03*
X45276Y-30059D03*
X45276Y-30559D03*
X45276Y-31059D03*
X47402Y-31059D03*
X47402Y-30559D03*
X47402Y-30059D03*
X47402Y-29559D03*
X47402Y-29059D03*
X47402Y-28559D03*
X47402Y-28059D03*
X47402Y-27559D03*
G54D12*
X44193Y-29414D03*
X44193Y-28814D03*
G54D13*
X44394Y-35433D03*
X43794Y-35433D03*
X44040Y-30335D03*
X43440Y-30335D03*
X44198Y-31103D03*
X43598Y-31103D03*
X48922Y-29134D03*
X48322Y-29134D03*
X48922Y-29921D03*
X48322Y-29921D03*
G54D12*
X49724Y-28913D03*
X49724Y-29513D03*
G54D14*
X41929Y-28528D03*
X41929Y-29528D03*
G54D15*
X41929Y-27528D03*
G54D14*
X41929Y-30528D03*
X41929Y-31528D03*
X41929Y-32528D03*
X41929Y-33528D03*
X41929Y-34528D03*
X41929Y-35528D03*
X41929Y-36528D03*
G54D16*
X49213Y-31028D03*
X49713Y-31028D03*
X49213Y-31528D03*
X49713Y-31528D03*
X49213Y-32028D03*
X49713Y-32028D03*
X49213Y-32528D03*
X49713Y-32528D03*
X49213Y-33028D03*
X49713Y-33028D03*
G54D12*
X44291Y-32771D03*
X44291Y-33371D03*
X44291Y-27653D03*
X44291Y-28253D03*
X48425Y-27653D03*
X48425Y-28253D03*
G54D13*
X46629Y-31890D03*
X47229Y-31890D03*
G54D12*
X43504Y-28243D03*
X43504Y-28843D03*
G54D13*
X43794Y-36220D03*
X44394Y-36220D03*
G54D12*
X49370Y-27574D03*
X49370Y-28174D03*
G54D17*
X44724Y-30276D03*
X42441Y-28012D03*
G54D18*
X44291Y-28253D02*
X44291Y-28716D01*
X44291Y-28716D02*
X44193Y-28814D01*
X44291Y-28253D02*
X44485Y-28059D01*
X44485Y-28059D02*
X45276Y-28059D01*
X44199Y-30015D02*
X44040Y-30174D01*
X44199Y-30015D02*
X44745Y-29469D01*
X44745Y-29469D02*
X44744Y-29055D01*
X44744Y-29055D02*
X45272Y-29055D01*
X45276Y-29059D02*
X45272Y-29055D01*
X44040Y-30174D02*
X44040Y-30335D01*
X44370Y-30197D02*
X45009Y-29559D01*
X44370Y-30197D02*
X44370Y-30931D01*
X45276Y-29559D02*
X45009Y-29559D01*
X44370Y-30931D02*
X44198Y-31103D01*
X44193Y-29414D02*
X44075Y-29414D01*
X44075Y-29414D02*
X43504Y-28843D01*
X43504Y-28243D02*
X44094Y-27653D01*
X44094Y-27653D02*
X44291Y-27653D01*
X45276Y-27559D02*
X44385Y-27559D01*
X44385Y-27559D02*
X44291Y-27653D01*
X42441Y-28012D02*
X41957Y-27528D01*
X45276Y-30059D02*
X44941Y-30059D01*
X44941Y-30059D02*
X44724Y-30276D01*
X41957Y-27528D02*
X41929Y-27528D01*
M02*
