M48
;DRILL file {Pcbnew (2013-03-04 BZR 3984)-stable} date 3/15/2013 4:30:28 PM
;FORMAT={-:-/ absolute / inch / decimal}
FMAT,2
INCH,TZ
T1C0.013
T2C0.028
%
G90
G05
M72
T1
X4.2795Y-3.0276
X4.3543Y-3.3386
X4.3937Y-3.4606
X4.4016Y-2.9843
X4.4055Y-3.1535
X4.4409Y-3.4134
X4.4724Y-2.8504
X4.4724Y-3.0276
X4.4724Y-3.0906
X4.4724Y-3.2677
X4.4724Y-3.5591
X4.4764Y-3.6535
X4.7402Y-3.2047
X4.7953Y-3.5669
X4.7992Y-3.1024
X4.8386Y-2.878
X4.8386Y-3.1417
X4.878Y-2.7953
X4.8898Y-3.3386
X4.8898Y-3.4961
X4.9213Y-3.0472
X4.9409Y-3.4094
X5.0157Y-3.4094
T2
X4.9213Y-3.1028
X4.9213Y-3.1528
X4.9213Y-3.2028
X4.9213Y-3.2528
X4.9213Y-3.3028
X4.9713Y-3.1028
X4.9713Y-3.1528
X4.9713Y-3.2028
X4.9713Y-3.2528
X4.9713Y-3.3028
T0
M30
