G04 (created by PCBNEW (2013-03-04 BZR 3984)-stable) date 3/15/2013 4:30:27 PM*
%MOIN*%
G04 Gerber Fmt 3.4, Leading zero omitted, Abs format*
%FSLAX34Y34*%
G01*
G70*
G90*
G04 APERTURE LIST*
%ADD10C,2.3622e-006*%
%ADD11R,0.061X0.0236*%
%ADD12R,0.045X0.025*%
%ADD13R,0.025X0.045*%
%ADD14R,0.0394X0.0394*%
%ADD15C,0.0394*%
%ADD16R,0.1181X0.0394*%
%ADD17O,0.1181X0.0394*%
%ADD18C,0.02*%
%ADD19C,0.0118*%
G04 APERTURE END LIST*
G54D10*
G54D11*
X45276Y-32677D03*
X45276Y-33177D03*
X45276Y-33677D03*
X45276Y-34177D03*
X45276Y-34677D03*
X45276Y-35177D03*
X45276Y-35677D03*
X45276Y-36177D03*
X47402Y-36177D03*
X47402Y-35677D03*
X47402Y-35177D03*
X47402Y-34677D03*
X47402Y-34177D03*
X47402Y-33677D03*
X47402Y-33177D03*
X47402Y-32677D03*
X45276Y-27913D03*
X45276Y-28413D03*
X45276Y-28913D03*
X45276Y-29413D03*
X45276Y-29913D03*
X45276Y-30413D03*
X45276Y-30913D03*
X45276Y-31413D03*
X47402Y-31413D03*
X47402Y-30913D03*
X47402Y-30413D03*
X47402Y-29913D03*
X47402Y-29413D03*
X47402Y-28913D03*
X47402Y-28413D03*
X47402Y-27913D03*
G54D12*
X44193Y-29414D03*
X44193Y-28814D03*
G54D13*
X44375Y-36299D03*
X43775Y-36299D03*
X44040Y-30335D03*
X43440Y-30335D03*
X44040Y-31102D03*
X43440Y-31102D03*
X48765Y-29370D03*
X48165Y-29370D03*
X48765Y-30157D03*
X48165Y-30157D03*
X49867Y-28976D03*
X49267Y-28976D03*
G54D12*
X44291Y-32771D03*
X44291Y-33371D03*
X44291Y-27653D03*
X44291Y-28253D03*
X48386Y-27653D03*
X48386Y-28253D03*
X48386Y-33106D03*
X48386Y-33706D03*
X43504Y-28243D03*
X43504Y-28843D03*
G54D13*
X43775Y-35433D03*
X44375Y-35433D03*
G54D12*
X49173Y-27653D03*
X49173Y-28253D03*
G54D14*
X49213Y-31028D03*
G54D15*
X49713Y-31028D03*
X49213Y-31528D03*
X49713Y-31528D03*
X49213Y-32028D03*
X49713Y-32028D03*
X49213Y-32528D03*
X49713Y-32528D03*
X49213Y-33028D03*
X49713Y-33028D03*
G54D16*
X41929Y-28528D03*
X41929Y-29528D03*
G54D17*
X41929Y-27528D03*
G54D16*
X41929Y-30528D03*
X41929Y-31528D03*
X41929Y-32528D03*
X41929Y-33528D03*
X41929Y-34528D03*
X41929Y-35528D03*
X41929Y-36528D03*
G54D18*
X43543Y-33385D03*
X44055Y-31535D03*
X44724Y-28504D03*
X44764Y-36535D03*
X48897Y-34960D03*
X48897Y-33385D03*
X48386Y-31417D03*
X48386Y-28780D03*
X49409Y-34094D03*
X50157Y-34094D03*
X44724Y-35591D03*
X44724Y-30906D03*
X44016Y-29843D03*
X44724Y-32677D03*
X47952Y-35669D03*
X49213Y-30472D03*
X47402Y-32047D03*
X48780Y-27953D03*
X47992Y-31024D03*
X44724Y-30276D03*
X42795Y-30276D03*
X44409Y-34133D03*
X43937Y-34606D03*
G54D19*
X44291Y-33371D02*
X43558Y-33371D01*
X43558Y-33371D02*
X43543Y-33385D01*
X44485Y-33177D02*
X45276Y-33177D01*
X44724Y-28504D02*
X44815Y-28413D01*
X44815Y-28413D02*
X45276Y-28413D01*
X45276Y-31413D02*
X45154Y-31535D01*
X45154Y-31535D02*
X44055Y-31535D01*
X44291Y-28253D02*
X44451Y-28413D01*
X44291Y-28716D02*
X44193Y-28814D01*
X44291Y-33371D02*
X44485Y-33177D01*
X44291Y-28253D02*
X44291Y-28716D01*
X44451Y-28413D02*
X45276Y-28413D01*
X45276Y-36177D02*
X45122Y-36177D01*
X45122Y-36177D02*
X44764Y-36535D01*
X49094Y-33582D02*
X48897Y-33385D01*
X48468Y-36177D02*
X47402Y-36177D01*
X48897Y-35748D02*
X48468Y-36177D01*
X48897Y-34960D02*
X48897Y-35748D01*
X48386Y-31413D02*
X47402Y-31413D01*
X49213Y-32028D02*
X49213Y-31528D01*
X49213Y-33028D02*
X49213Y-33464D01*
X48971Y-33706D02*
X48386Y-33706D01*
X49213Y-33464D02*
X49094Y-33582D01*
X49094Y-33582D02*
X48971Y-33706D01*
X48386Y-28253D02*
X47562Y-28253D01*
X48386Y-33706D02*
X47857Y-33177D01*
X47857Y-33177D02*
X47402Y-33177D01*
X47562Y-28253D02*
X47402Y-28413D01*
X49267Y-28976D02*
X49109Y-28976D01*
X49109Y-28976D02*
X48386Y-28253D01*
X49098Y-31413D02*
X48386Y-31413D01*
X49213Y-32028D02*
X48838Y-32028D01*
X48822Y-33028D02*
X49213Y-33028D01*
X48819Y-33031D02*
X48822Y-33028D01*
X48819Y-32047D02*
X48819Y-33031D01*
X48838Y-32028D02*
X48819Y-32047D01*
X48386Y-28253D02*
X48386Y-28780D01*
X48386Y-31417D02*
X48386Y-31413D01*
X49213Y-31528D02*
X49098Y-31413D01*
X49173Y-28253D02*
X49356Y-28253D01*
X49867Y-28764D02*
X49867Y-28976D01*
X49356Y-28253D02*
X49867Y-28764D01*
X44693Y-29913D02*
X44370Y-30236D01*
X45276Y-29913D02*
X44693Y-29913D01*
X44198Y-31103D02*
X44370Y-30931D01*
X44370Y-30236D02*
X44370Y-30931D01*
X44041Y-31103D02*
X44040Y-31102D01*
X44198Y-31103D02*
X44041Y-31103D01*
X44199Y-30015D02*
X44040Y-30174D01*
X44040Y-30174D02*
X44040Y-30335D01*
X44199Y-30015D02*
X44745Y-29469D01*
X44801Y-29413D02*
X45276Y-29413D01*
X44745Y-29469D02*
X44745Y-29469D01*
X44745Y-29469D02*
X44801Y-29413D01*
X44075Y-29414D02*
X43504Y-28843D01*
X44193Y-29414D02*
X44075Y-29414D01*
X47921Y-29913D02*
X47402Y-29913D01*
X48165Y-30157D02*
X47921Y-29913D01*
X47445Y-29370D02*
X47402Y-29413D01*
X48165Y-29370D02*
X47445Y-29370D01*
X43775Y-35433D02*
X43775Y-36299D01*
X44252Y-33858D02*
X44606Y-33858D01*
X44252Y-33858D02*
X42953Y-33858D01*
X42953Y-33858D02*
X42913Y-33818D01*
X42913Y-33818D02*
X42913Y-31535D01*
X42913Y-31535D02*
X42906Y-31528D01*
X41929Y-31528D02*
X42906Y-31528D01*
X44787Y-33677D02*
X45276Y-33677D01*
X44606Y-33858D02*
X44787Y-33677D01*
X47653Y-33677D02*
X48070Y-34094D01*
X48070Y-34094D02*
X49409Y-34094D01*
X47402Y-33677D02*
X47653Y-33677D01*
X50157Y-34094D02*
X50157Y-33661D01*
X50157Y-34094D02*
X50157Y-34094D01*
X49953Y-31528D02*
X50394Y-31969D01*
X50394Y-31969D02*
X50394Y-33425D01*
X50394Y-33425D02*
X50157Y-33661D01*
X50157Y-33661D02*
X50157Y-33662D01*
X49713Y-31528D02*
X49953Y-31528D01*
X43247Y-30528D02*
X41929Y-30528D01*
X43440Y-30335D02*
X43247Y-30528D01*
X43440Y-31102D02*
X43440Y-30721D01*
X43440Y-30721D02*
X43247Y-30528D01*
X48765Y-29370D02*
X48765Y-30157D01*
X48765Y-30157D02*
X49330Y-30157D01*
X49713Y-30540D02*
X49713Y-31028D01*
X49330Y-30157D02*
X49713Y-30540D01*
X45276Y-34677D02*
X44520Y-34677D01*
X42190Y-33528D02*
X41929Y-33528D01*
X42953Y-34291D02*
X42190Y-33528D01*
X44134Y-34291D02*
X42953Y-34291D01*
X44520Y-34677D02*
X44134Y-34291D01*
X49614Y-34677D02*
X47402Y-34677D01*
X49921Y-34369D02*
X49614Y-34677D01*
X49921Y-33464D02*
X49921Y-34369D01*
X49921Y-33464D02*
X49921Y-33465D01*
X49713Y-32028D02*
X50099Y-32028D01*
X50099Y-32028D02*
X50118Y-32047D01*
X50118Y-32047D02*
X50118Y-33268D01*
X50118Y-33268D02*
X49921Y-33464D01*
X44385Y-27559D02*
X44291Y-27653D01*
X44370Y-36732D02*
X42835Y-36732D01*
X44370Y-36304D02*
X44370Y-36732D01*
X44810Y-35677D02*
X44724Y-35591D01*
X45276Y-35677D02*
X44810Y-35677D01*
X42835Y-36732D02*
X42631Y-36528D01*
X42631Y-36528D02*
X41929Y-36528D01*
X44291Y-27653D02*
X45016Y-27653D01*
X43504Y-28243D02*
X44094Y-27653D01*
X44375Y-36299D02*
X44370Y-36304D01*
X44385Y-32677D02*
X44724Y-32677D01*
X44291Y-32771D02*
X44385Y-32677D01*
X44094Y-27653D02*
X44291Y-27653D01*
X44997Y-35677D02*
X45276Y-35677D01*
X44375Y-36299D02*
X44997Y-35677D01*
X44724Y-32677D02*
X45276Y-32677D01*
X45016Y-27653D02*
X45276Y-27913D01*
X45269Y-30906D02*
X45276Y-30913D01*
X43071Y-29843D02*
X44016Y-29843D01*
X43504Y-28243D02*
X43489Y-28228D01*
X44724Y-30906D02*
X45269Y-30906D01*
X43489Y-28228D02*
X43110Y-28228D01*
X43110Y-28228D02*
X43071Y-28267D01*
X43071Y-28267D02*
X43071Y-29843D01*
X47409Y-35669D02*
X47402Y-35677D01*
X47952Y-35669D02*
X47409Y-35669D01*
X47402Y-30413D02*
X47895Y-30906D01*
X48017Y-31028D02*
X49213Y-31028D01*
X47402Y-27913D02*
X48126Y-27913D01*
X48126Y-27913D02*
X48386Y-27653D01*
X47957Y-32677D02*
X47402Y-32677D01*
X48386Y-27653D02*
X49173Y-27653D01*
X48386Y-33106D02*
X47957Y-32677D01*
X48780Y-27953D02*
X49080Y-27653D01*
X49213Y-31028D02*
X49213Y-30472D01*
X47895Y-30906D02*
X48017Y-31028D01*
X47402Y-32677D02*
X47402Y-32047D01*
X47409Y-30906D02*
X47895Y-30906D01*
X47402Y-30913D02*
X47409Y-30906D01*
X49080Y-27653D02*
X49173Y-27653D01*
X47992Y-31024D02*
X47996Y-31028D01*
X47996Y-31028D02*
X48017Y-31028D01*
X44861Y-30413D02*
X45276Y-30413D01*
X42795Y-28366D02*
X42441Y-28012D01*
X42795Y-30276D02*
X42795Y-28366D01*
X41929Y-27528D02*
X41957Y-27528D01*
X42441Y-28012D02*
X41957Y-27528D01*
X44861Y-30413D02*
X44724Y-30276D01*
X43937Y-34606D02*
X44375Y-35044D01*
X44375Y-35044D02*
X44375Y-35433D01*
X43937Y-34606D02*
X42007Y-34606D01*
X42007Y-34606D02*
X41929Y-34528D01*
X45232Y-34133D02*
X45276Y-34177D01*
X44409Y-34133D02*
X45232Y-34133D01*
X43937Y-34587D02*
X43937Y-34606D01*
X47402Y-34177D02*
X47759Y-34177D01*
X49713Y-34177D02*
X49713Y-33028D01*
X49519Y-34370D02*
X49713Y-34177D01*
X47952Y-34370D02*
X49519Y-34370D01*
X47759Y-34177D02*
X47952Y-34370D01*
M02*
